<svg width="32" height="32" viewBox="0 0 32 32" fill="none" xmlns="http://www.w3.org/2000/svg">
<path d="M16 21C18.7614 21 21 18.7614 21 16C21 13.2386 18.7614 11 16 11C13.2386 11 11 13.2386 11 16C11 18.7614 13.2386 21 16 21Z" stroke="white" stroke-linecap="round" stroke-linejoin="round"/>
<path d="M21.5 4.5H10.5C7.18629 4.5 4.5 7.18629 4.5 10.5V21.5C4.5 24.8137 7.18629 27.5 10.5 27.5H21.5C24.8137 27.5 27.5 24.8137 27.5 21.5V10.5C27.5 7.18629 24.8137 4.5 21.5 4.5Z" stroke="white" stroke-linecap="round" stroke-linejoin="round"/>
<path d="M22.5 10.5C23.0523 10.5 23.5 10.0523 23.5 9.5C23.5 8.94772 23.0523 8.5 22.5 8.5C21.9477 8.5 21.5 8.94772 21.5 9.5C21.5 10.0523 21.9477 10.5 22.5 10.5Z" fill="white"/>
</svg>
